<svg width="15" height="15" viewBox="0 0 15 15" fill="none" xmlns="http://www.w3.org/2000/svg">
<path d="M2.77344 8.08594C3.5026 8.8151 4.38802 9.17969 5.42969 9.17969C6.47135 9.17969 7.35677 8.8151 8.08594 8.08594C8.8151 7.35677 9.17969 6.47135 9.17969 5.42969C9.17969 4.38802 8.8151 3.5026 8.08594 2.77344C7.35677 2.04427 6.47135 1.67969 5.42969 1.67969C4.38802 1.67969 3.5026 2.04427 2.77344 2.77344C2.04427 3.5026 1.67969 4.38802 1.67969 5.42969C1.67969 6.47135 2.04427 7.35677 2.77344 8.08594ZM10.4297 9.17969L14.5703 13.3203L13.3203 14.5703L9.17969 10.4297V9.76562L8.94531 9.53125C7.95573 10.3906 6.78385 10.8203 5.42969 10.8203C3.91927 10.8203 2.63021 10.2995 1.5625 9.25781C0.520833 8.21615 0 6.9401 0 5.42969C0 3.91927 0.520833 2.64323 1.5625 1.60156C2.63021 0.533854 3.91927 0 5.42969 0C6.9401 0 8.21615 0.533854 9.25781 1.60156C10.2995 2.64323 10.8203 3.91927 10.8203 5.42969C10.8203 5.97656 10.6901 6.60156 10.4297 7.30469C10.1693 7.98177 9.86979 8.52865 9.53125 8.94531L9.76562 9.17969H10.4297Z" fill="#444444"/>
</svg>
