<svg width="88" height="65" viewBox="0 0 88 65" fill="none" xmlns="http://www.w3.org/2000/svg">
<path d="M83.2707 13.8018H4.72584C2.82675 13.8018 1.28723 15.3969 1.28723 17.3647V60.1035C1.28723 62.0713 2.82675 63.6665 4.72584 63.6665H83.2707C85.1698 63.6665 86.7093 62.0713 86.7093 60.1035V17.3647C86.7093 15.3969 85.1698 13.8018 83.2707 13.8018Z" fill="#FFF5EB"/>
<path d="M76.6546 13.8018H11.3413V63.6665H76.6546V13.8018Z" fill="#FFF5EB"/>
<path d="M26.809 4.89645V13.8018H31.9648V6.68002H56.027V13.8018H61.1829V4.89645C61.1829 2.92953 59.6426 1.3335 57.7443 1.3335H30.2435C28.3453 1.3335 26.8049 2.92953 26.8049 4.89645H26.809Z" fill="#EE6451"/>
<path d="M43.9976 37.1506L35.9178 42.0388C34.2971 43.0222 33.2997 44.8183 33.2997 46.7644V47.5061C33.2997 50.5273 35.6645 52.9777 38.5802 52.9818C39.9959 52.9818 41.3512 52.3943 42.3446 51.3483L43.9895 49.6147L45.6344 51.3483C46.6278 52.3943 47.9831 52.9818 49.3988 52.9818C52.3145 52.9818 54.6793 50.5315 54.6793 47.5103V46.7685C54.6793 44.8224 53.6819 43.0264 52.0652 42.0429L43.9855 37.1548L43.9976 37.1506Z" fill="#A2B72B"/>
<path d="M47.0545 27.6536C47.0545 29.4039 45.679 32.4001 43.9979 32.4001C42.3168 32.4001 40.9414 29.3997 40.9414 27.6536C40.9414 25.9034 42.3088 24.4866 43.9979 24.4866C45.6871 24.4866 47.0545 25.9034 47.0545 27.6536Z" fill="#A2B72B"/>
<path d="M57.7484 32.4002C57.7484 34.1504 54.8528 37.1508 53.1636 37.1508C51.4745 37.1508 51.6353 34.1504 51.6353 32.4002C51.6353 30.65 53.0068 29.2332 54.6919 29.2332C56.377 29.2332 57.7444 30.65 57.7484 32.4002Z" fill="#A2B72B"/>
<path d="M36.3606 32.4002C36.3606 34.1504 36.5215 37.1508 34.8324 37.1508C33.1432 37.1508 30.2476 34.1504 30.2476 32.4002C30.2476 30.65 31.619 29.2332 33.3041 29.2332C34.9892 29.2332 36.3566 30.65 36.3606 32.4002Z" fill="#A2B72B"/>
<path d="M83.2704 12.4641H62.4739V4.89646C62.4739 2.19195 60.3545 0.0041672 57.7484 0H30.2476C27.6375 0 25.5261 2.19612 25.5221 4.89646V12.4641H4.72556C2.11544 12.4641 0.00402175 14.6602 0 17.3606V60.1035C0 62.8081 2.11946 64.9958 4.72556 65H83.2744C85.8846 65 87.996 62.8039 88 60.1035V17.3606C88 14.6561 85.8805 12.4683 83.2744 12.4641H83.2704ZM54.7401 12.4641H33.2559V8.01352H54.7401V12.4641ZM75.3637 15.1353V62.3288H12.6283V15.1353H75.3637ZM28.096 4.89646C28.096 3.66714 29.0572 2.67119 30.2436 2.67119H57.7443C58.9308 2.67119 59.892 3.66714 59.892 4.89646V12.4641H57.314V6.67587C57.314 5.93827 56.7349 5.33818 56.023 5.33818H31.9609C31.249 5.33818 30.6699 5.93827 30.6699 6.67587V12.4641H28.092V4.89646H28.096ZM2.57392 60.1035V17.3606C2.57392 16.1313 3.53512 15.1353 4.72154 15.1353H10.0504V62.3288H4.72154C3.53512 62.3288 2.57392 61.3329 2.57392 60.1035ZM85.418 60.1035C85.418 61.3329 84.4569 62.3288 83.2704 62.3288H77.9416V15.1353H83.2704C84.4569 15.1353 85.418 16.1313 85.418 17.3606V60.1035Z" fill="#EE6451"/>
<path d="M52.7251 40.8843L44.6454 35.9962C44.2432 35.7503 43.7485 35.7503 43.3464 35.9962L35.2667 40.8843C33.2558 42.1094 32.0171 44.3431 32.009 46.7601V47.5018C32.009 51.2606 34.9489 54.311 38.5766 54.3152C40.3381 54.3152 42.0272 53.5818 43.2659 52.2816L43.9939 51.5148L44.7218 52.2816C47.2676 54.9611 51.4261 54.9986 54.012 52.3649C55.2709 51.0856 55.9787 49.3354 55.9747 47.506V46.7684C55.9706 44.3514 54.7319 42.1136 52.7211 40.8885L52.7251 40.8843ZM53.4128 47.506C53.4128 49.7938 51.6231 51.644 49.4192 51.644C48.3494 51.644 47.3239 51.1981 46.5758 50.4105L44.9309 48.677C44.4322 48.1519 43.6118 48.1436 43.1051 48.6645L43.093 48.677L41.4481 50.4105C39.8997 52.0399 37.37 52.0607 35.7975 50.4564C35.0334 49.6771 34.6071 48.6186 34.6071 47.5101V46.7684C34.6071 45.2973 35.3551 43.9347 36.5777 43.1888L44.0059 38.7007L51.4341 43.1888C52.6567 43.9347 53.4088 45.2932 53.4128 46.7601L53.4209 47.506H53.4128Z" fill="#A2B72B"/>
<path d="M43.998 33.7334C46.6926 33.7334 48.3415 29.7954 48.3415 27.6493C48.3415 25.1615 46.399 23.1445 43.998 23.1445C41.597 23.1445 39.6505 25.1573 39.6505 27.6451C39.6505 29.7912 41.2994 33.7334 43.994 33.7334H43.998ZM43.998 25.8199C44.9753 25.8199 45.7636 26.6408 45.7636 27.6493C45.7636 29.0578 44.6214 31.0622 43.998 31.0622C43.3747 31.0622 42.2325 29.0578 42.2325 27.6493C42.2325 26.6367 43.0248 25.8199 43.998 25.8199Z" fill="#A2B72B"/>
<path d="M53.1637 38.4841C55.5767 38.4841 59.0354 34.9003 59.0354 32.4C59.0354 29.9122 57.0889 27.8994 54.6879 27.8994C52.291 27.8994 50.3444 29.9163 50.3444 32.4V32.8125C50.3324 34.4961 50.3203 36.5922 51.4223 37.7465C51.8807 38.2257 52.5081 38.4966 53.1597 38.4841H53.1637ZM52.9224 32.8292V32.4C52.9224 31.3874 53.7147 30.5706 54.6919 30.5706C55.6652 30.5706 56.4575 31.3915 56.4575 32.4C56.4575 32.7167 56.0593 33.571 55.1786 34.4878C54.3421 35.3504 53.5618 35.7671 53.216 35.8129C52.9103 35.3295 52.9224 33.5293 52.9264 32.8334L52.9224 32.8292Z" fill="#A2B72B"/>
<path d="M34.8322 38.4841C35.4837 38.4924 36.1151 38.2257 36.5696 37.7465C37.6716 36.5922 37.6595 34.4961 37.6474 32.8125V32.4C37.6474 29.9122 35.7009 27.8994 33.2999 27.8994C30.9029 27.8994 28.9564 29.9163 28.9564 32.4C28.9564 34.9003 32.4111 38.4841 34.8282 38.4841H34.8322ZM33.3039 30.5706C34.2772 30.5706 35.0695 31.3915 35.0695 32.4V32.8292C35.0695 33.5251 35.0856 35.3212 34.7799 35.8088C34.4381 35.7712 33.6579 35.3545 32.8173 34.4836C31.9325 33.5668 31.5384 32.7042 31.5384 32.3958C31.5384 31.3832 32.3307 30.5664 33.308 30.5664L33.3039 30.5706Z" fill="#A2B72B"/>
</svg>
