<svg width="48" height="48" viewBox="0 0 48 48" fill="none" xmlns="http://www.w3.org/2000/svg">
<rect width="48" height="48" rx="4" fill="#FFF5EB"/>
<path d="M42.0493 32.3188V21.8242C42.0493 21.4078 42.0493 21.0746 41.7994 20.7414C41.5495 20.4083 41.2164 20.1584 40.8832 19.8252C38.3845 17.4098 35.8025 14.9111 33.3038 12.4957C30.4719 9.74706 27.64 6.99847 24.7248 4.24987C24.3917 3.91671 23.8086 3.91671 23.4755 4.24987C20.7269 6.91518 17.9783 9.58048 15.1464 12.2458C13.314 13.9949 9.89907 17.2432 8.06668 19.0756C7.23377 19.9085 8.39984 21.1579 9.23274 20.4083C13.2307 16.5769 17.2287 12.7455 21.1433 8.83086C22.0595 7.91466 23.059 6.99847 23.9752 6.08227C26.6405 8.66428 29.2225 11.163 31.8878 13.745C34.6364 16.4103 37.385 19.0756 40.1336 21.7409V33.5682C40.1336 36.3168 39.3007 38.8155 37.0518 40.5646C34.803 42.397 31.9711 42.397 29.2225 42.1472C27.1403 41.9806 25.4744 40.3148 25.1413 38.2325C24.9747 37.233 24.8914 36.1502 24.8081 35.1507C24.6415 34.068 23.059 33.9847 23.059 35.1507C23.059 36.0669 22.9757 36.9831 22.9757 37.8993C22.8924 39.6484 21.6431 41.3142 19.894 41.8973C18.7279 42.2304 17.3952 42.1472 16.2292 42.2304C14.7299 42.3137 13.314 42.0639 11.9813 41.3142C9.39933 39.815 7.90009 37.0664 7.90009 33.9847C7.90009 32.9019 7.90009 31.8191 7.90009 30.8196C7.90009 30.3199 7.48364 29.9034 6.9839 29.9034C6.48415 29.9034 6.0677 30.3199 6.0677 30.8196C6.0677 31.9857 5.98441 34.1512 6.15099 35.3173C6.56744 38.9821 8.98287 42.0639 12.3978 43.3965C13.7304 43.8963 15.1464 44.0628 16.5623 43.9795C17.7284 43.8963 19.061 43.9795 20.2271 43.6464C21.8929 43.2299 23.3922 41.9806 24.2251 40.398C24.8081 41.6474 25.8909 42.6469 27.057 43.2299C28.0564 43.7297 29.1392 43.813 30.3053 43.8963C32.5541 43.9795 34.7197 43.9795 36.802 42.8968C39.3007 41.6474 41.2164 39.232 41.7994 36.4834C42.1326 35.1507 42.0493 33.7348 42.0493 32.3188Z" fill="#EE6451"/>
<path d="M24.0585 30.7363H26.6405C27.3901 30.7363 27.8899 31.5692 27.5567 32.2356L26.3074 34.4844L25.058 36.7333C24.6415 37.3996 23.7253 37.3996 23.3089 36.7333L22.0595 34.4844L20.6436 32.3189C20.2271 31.6525 20.7269 30.8196 21.5598 30.8196H24.0585V30.7363Z" fill="#EE6451"/>
<path d="M8.73301 18.326C7.56694 19.4921 6.40087 20.6581 5.2348 21.8242C4.73506 22.324 5.06822 23.3234 5.90113 23.3234C7.81682 23.3234 9.7325 23.3234 11.6482 23.3234C13.2307 23.3234 15.8127 23.7399 16.9788 22.4072C17.2287 22.0741 16.8122 22.4072 16.9788 22.324C17.1454 22.2407 17.2287 22.1574 17.3952 22.0741C17.7284 21.9075 18.1449 21.8242 18.478 21.9075C19.2276 21.9908 19.6441 22.5738 20.1438 23.0736C20.9767 23.9065 22.2261 22.6571 21.3932 21.8242C20.2271 20.6581 18.9778 19.8252 17.2287 20.2417C16.6456 20.4083 16.1459 20.6581 15.6461 21.0746C15.2297 21.4911 14.8132 21.5743 14.2302 21.5743C12.3145 21.5743 10.3155 21.5743 8.39985 21.5743C7.48365 21.5743 6.65075 21.5743 5.73455 21.5743C5.98442 22.1574 6.23429 22.6571 6.40087 23.1569C7.56694 21.9908 8.73301 20.8247 9.89908 19.6587C10.8153 18.8257 9.56592 17.5764 8.73301 18.326Z" fill="#EE6451"/>
<path d="M41.8827 22.7404L32.9706 14.0782L40.3002 4.66632C40.6334 4.24987 41.1331 4.08329 41.6329 4.24987C42.1326 4.41645 42.3825 4.8329 42.3825 5.33265L41.8827 22.7404ZM35.3028 13.9116L40.2169 18.6592L40.5501 7.16505L35.3028 13.9116Z" fill="#EE6451"/>
</svg>
